<svg xmlns="http://www.w3.org/2000/svg" width="512" height="512" viewBox="0 0 128 128"><path d="M59 78 L35 96 L29 111 L16 112 L23 103 L26 83Z" fill="#101e2b"/><path d="M33 99 L27 110 L17 110" fill="none" stroke="#708b8c" stroke-width="3" stroke-linejoin="round"/><path d="M45 74 L18 108 L22 112 L51 77Z" fill="#14151e" stroke="#798581" stroke-width="1" stroke-linejoin="round"/><path d="M50 54.0 L73 54.0 L74 79 L82 92 L54 87 L43 91 L48 72Z" fill="#30343f" stroke="#0b1720" stroke-width="2" stroke-linejoin="round"/><path d="M53 56.0 L65 67.0 L53 78 L46 77Z" fill="#8c8d8c"/><path d="M63 81 L75.5 98 L84 110 L98 110 L95 115 L76 115 L62.5 95 L51 81Z" fill="#30343f" stroke="#0c1922" stroke-width="2" stroke-linejoin="round"/><path d="M72.4 102L84.2 106" fill="none" stroke="#86a09b" stroke-width="3"/><path d="M47 76 L71 75 L75 82 L46 84Z" fill="#b1976b"/><rect x="58" y="77" width="7" height="6" fill="#e1b78b" /><path d="M52 31.0 Q67 23.0 77 38.0 L75 49.0 L64 56.0 L50 47.0Z" fill="#101e2c" stroke="#496874" stroke-width="1" stroke-linejoin="round"/><path d="M63 36.0 L78 38.0 L75 46.0 L62 46.0Z" fill="#d4ba9b"/><path d="M70 40.0L77 40.0" fill="none" stroke="#e9fcdf" stroke-width="2"/><path d="M61 46.0 L75 47.0 L68 55.0 L58 53.0Z" fill="#78373d"/><path d="M70 60.0 L78 73 L84 79" fill="none" stroke="#8c8d8c" stroke-width="7" stroke-linejoin="round"/><path d="M82 75 L116 40 L118 37 L116 46 L86 79Z" fill="#d0e8df"/><path d="M78 74L88 82" fill="none" stroke="#d9ad7b" stroke-width="3"/></svg>
